PathFileType	4	(X/Y/Z)	Kaydara																																																																																																																									
DataRate	CameraRate	NumFrames	NumMarkers	Units	OrigDataRate	OrigDataStartFrame	OrigNumFrames																																																																																																																					
30	30	8	41	mm	30	30	230																																																																																																																					
Frame#	Time	PAIB_LFHD			PAIB_RFHD			PAIB_LBHD			PAIB_RBHD			PAIB_LFTShould			PAIB_RFTShould			PAIB_LRRShould			PAIB_RRRShould			PAIB_T10			PAIB_STRN			PAIB_TRUN			PAIB_LSHO			PAIB_LUPA			PAIB_LELB			PAIB_LFRM			PAIB_LWRA			PAIB_LWRB			PAIB_LFIN			PAIB_RSHO			PAIB_RUPA			PAIB_RELB			PAIB_RFRM			PAIB_RWRA			PAIB_RWRB			PAIB_RFIN			PAIB_LFWT			PAIB_RFWT			PAIB_LBWT			PAIB_RBWT			PAIB_LTHI			PAIB_LKNE			PAIB_LSHN			PAIB_LANK			PAIB_LHEE			PAIB_LTOE			PAIB_RTHI			PAIB_RKNE			PAIB_RSHN			PAIB_RANK			PAIB_RHEE			PAIB_RTOE		
		X1	Y1	Z1	X2	Y2	Z2	X3	Y3	Z3	X4	Y4	Z4	X5	Y5	Z5	X6	Y6	Z6	X7	Y7	Z7	X8	Y8	Z8	X9	Y9	Z9	X10	Y10	Z10	X11	Y11	Z11	X12	Y12	Z12	X13	Y13	Z13	X14	Y14	Z14	X15	Y15	Z15	X16	Y16	Z16	X17	Y17	Z17	X18	Y18	Z18	X19	Y19	Z19	X20	Y20	Z20	X21	Y21	Z21	X22	Y22	Z22	X23	Y23	Z23	X24	Y24	Z24	X25	Y25	Z25	X26	Y26	Z26	X27	Y27	Z27	X28	Y28	Z28	X29	Y29	Z29	X30	Y30	Z30	X31	Y31	Z31	X32	Y32	Z32	X33	Y33	Z33	X34	Y34	Z34	X35	Y35	Z35	X36	Y36	Z36	X37	Y37	Z37	X38	Y38	Z38	X39	Y39	Z39	X40	Y40	Z40	X41	Y41	Z41
																																																																																																																												
29	0.953	242.04771	1700.33554	-1997.26395	56.53664	1701.63666	-2010.74265	258.13845	1665.44617	-2123.01407	55.36448	1677.89658	-2124.27521	215.7909	1436.85547	-1991.1972	92.14289	1433.0278	-1999.3718	231.294	1482.56363	-2142.75467	76.82725	1482.40509	-2140.56717	156.03498	1314.94614	-2203.86032	160.57577	1373.98483	-1948.03207	159.66046	1276.31279	-1914.14856	349.58572	1434.95178	-2067.33109	395.05798	1206.19125	-2049.28268	410.42397	1116.58066	-2076.2999	425.11333	1007.84424	-2020.63217	363.15102	908.08403	-1921.88416	401.26499	879.18053	-1983.87619	412.38636	852.34634	-1917.10724	-34.49631	1427.10861	-2060.18036	-92.47012	1247.15027	-2087.65305	-109.1492	1128.42239	-2084.61288	-122.94995	995.88081	-2039.26712	-63.80955	905.22682	-1929.90601	-129.06313	883.53165	-1978.41675	-122.25163	856.37337	-1908.35464	264.25674	967.56546	-1938.45062	28.09781	971.40549	-1944.1716	208.88617	1027.57668	-2152.32391	64.70448	1031.4959	-2152.45255	260.64495	748.8726	-2155.53329	298.05704	511.15433	-2069.95651	273.94127	311.72926	-2070.14069	280.74215	128.31547	-2160.73151	227.65411	119.39824	-2210.5365	263.81163	75.18632	-1987.31216	3.95269	730.42313	-2155.49286	-0.60546	487.52842	-2082.09167	57.0252	303.03043	-2072.99179	27.39822	106.86906	-2159.63669	89.47741	113.00713	-2214.38782	43.07582	77.45766	-1991.6803
30	0.987	242.12149	1700.30838	-1997.09137	56.61787	1701.6391	-2010.47211	258.17963	1665.49774	-2123.08426	55.37495	1677.91809	-2124.09668	215.79332	1436.88248	-1991.03607	92.0567	1432.9422	-1999.24393	231.24454	1482.60513	-2142.5708	76.81778	1482.43103	-2140.37659	156.05201	1314.96674	-2203.71689	160.62132	1373.983	-1947.94907	159.62298	1276.26122	-1914.0361	349.92035	1435.10223	-2067.64511	395.04646	1206.20323	-2048.91098	410.37704	1116.5609	-2075.8667	425.02357	1007.88422	-2020.16174	362.91069	908.18733	-1921.38626	401.10218	879.22478	-1983.27316	412.25243	852.45697	-1916.5358	-34.46906	1427.09656	-2059.96277	-92.41044	1247.13905	-2087.40784	-108.81362	1128.17299	-2083.96576	-122.89545	995.84595	-2038.98438	-63.63833	905.18761	-1929.63364	-128.92174	883.44292	-1978.05923	-122.09211	856.38268	-1908.05191	264.2124	967.53517	-1938.29315	27.99822	971.4093	-1944.12964	208.85403	1027.56035	-2152.17316	64.63671	1031.51421	-2152.32468	260.62592	748.87947	-2155.37796	297.93081	511.19167	-2069.8497	273.90192	311.88677	-2069.99985	280.75422	128.32496	-2160.67825	227.62737	119.41773	-2210.51987	263.80342	75.19066	-1987.29111	3.86407	730.48149	-2155.45715	-0.65483	487.52663	-2082.17468	56.9586	303.02063	-2073.06229	27.37139	106.72943	-2159.52835	89.48148	113.01115	-2214.39819	43.07541	77.47434	-1991.69144
31	1.02	242.09614	1700.27817	-1996.94809	56.67714	1701.59439	-2010.22415	258.18615	1665.50735	-2122.99637	55.38391	1677.90131	-2123.82233	215.97685	1436.72668	-1990.62546	92.11779	1432.93472	-1999.14413	231.26493	1482.63031	-2142.48138	76.86666	1482.44049	-2140.22675	156.06985	1314.98276	-2203.57498	160.68329	1373.97156	-1947.83524	159.65143	1276.21849	-1913.94196	350.09441	1435.289	-2068.00079	395.03544	1205.91759	-2048.63968	410.40401	1116.56387	-2075.56641	424.99371	1007.90077	-2019.75449	362.87888	908.36517	-1920.92743	401.06236	879.27185	-1982.82654	412.16972	852.54684	-1916.07117	-34.45198	1427.05841	-2059.77753	-92.38701	1247.12875	-2087.26517	-108.7377	1128.04482	-2083.67676	-122.80888	995.82657	-2038.83499	-63.54398	905.19447	-1929.48029	-128.44538	882.96524	-1977.24319	-122.01152	856.34628	-1907.9454	264.14272	967.43729	-1938.04413	27.85528	971.28517	-1944.05579	208.81702	1027.62856	-2151.98608	64.61761	1031.49132	-2152.20947	260.60425	748.88641	-2155.26642	297.94498	511.20232	-2069.78241	273.9057	311.63712	-2070.25299	280.74972	128.44534	-2160.60959	227.60353	119.44325	-2210.51437	263.80993	75.1909	-1987.29706	3.94296	730.48111	-2155.41946	-0.72125	487.5198	-2082.10861	56.89763	303.0167	-2072.99561	27.3263	106.86262	-2159.68658	89.46559	113.01905	-2214.39774	43.06506	77.47569	-1991.69083
32	1.053	242.17178	1700.25284	-1996.82312	56.72248	1701.56708	-2009.98413	258.19687	1665.50903	-2122.70187	55.35961	1677.88315	-2123.54584	215.83321	1436.8396	-1990.80856	92.19581	1432.99622	-1998.98972	231.29213	1482.60101	-2142.35931	76.8773	1482.41577	-2140.11658	156.09674	1314.9118	-2203.42773	160.68951	1373.9444	-1947.74139	159.7102	1276.19629	-1913.83591	349.99886	1435.05569	-2067.08298	395.22537	1206.32957	-2048.35617	410.51811	1116.57417	-2075.41824	425.09415	1007.94106	-2019.5668	362.91126	908.40523	-1920.62515	401.11736	879.31175	-1982.54913	412.15462	852.6194	-1915.77408	-34.44667	1427.07062	-2059.67361	-92.38883	1247.10823	-2087.1405	-108.73807	1128.09326	-2083.70667	-122.80836	995.80345	-2038.81958	-63.56596	905.11108	-1929.55063	-128.83396	883.40683	-1977.94174	-121.97268	856.28532	-1907.93472	264.05552	967.4469	-1937.92709	27.85807	971.43585	-1943.85849	208.80547	1027.61398	-2151.85501	64.59945	1031.47789	-2152.08847	260.61703	748.9315	-2155.22614	297.91418	511.18095	-2069.61395	273.83783	311.92869	-2069.75632	280.73528	128.34434	-2160.6813	227.62392	119.48709	-2210.50232	263.78529	75.19047	-1987.27478	3.99086	730.51025	-2155.32135	-0.73317	487.5349	-2082.02271	56.94888	303.05267	-2072.90207	27.22382	106.87637	-2159.78333	89.47663	113.03076	-2214.37271	43.05122	77.46376	-1991.68915
33	1.087	242.26871	1700.24643	-1996.68213	56.76381	1701.56647	-2009.8204	258.2209	1665.52429	-2122.60559	55.39236	1677.94601	-2123.40088	216.00372	1436.9371	-1990.74234	92.22447	1433.00156	-1998.95828	231.32889	1482.59918	-2142.32452	76.90962	1482.40814	-2140.02945	156.12858	1314.94049	-2203.40729	160.70742	1373.92456	-1947.64191	159.78777	1276.21223	-1913.76312	349.63612	1435.25192	-2067.9248	395.1701	1206.26671	-2048.46924	410.61996	1116.62605	-2075.31952	425.1582	1007.86568	-2019.36371	363.02502	908.34206	-1920.6073	401.29803	879.37576	-1982.48566	412.3764	852.68341	-1915.76294	-34.38283	1427.08832	-2059.57352	-92.37293	1247.1302	-2087.07184	-109.02482	1128.33191	-2084.03046	-122.85237	995.82756	-2038.84445	-63.5148	905.09399	-1929.64294	-128.86773	883.42621	-1978.05786	-122.01338	856.19904	-1908.08136	264.09073	967.48161	-1937.78854	27.8464	971.33774	-1943.78647	208.84089	1027.6265	-2151.75964	64.5991	1031.47209	-2151.95618	260.6229	748.91396	-2155.14709	297.8965	511.17802	-2069.46198	273.81594	311.74915	-2069.8616	280.70406	128.32767	-2160.03845	227.60727	119.49085	-2210.47653	263.79946	75.17244	-1987.29523	3.99186	730.54588	-2155.31113	-0.70505	487.51179	-2082.01675	56.90056	303.05105	-2073.02124	27.40261	106.82346	-2159.59625	89.49445	113.05779	-2214.40903	43.03734	77.46773	-1991.69144
34	1.12	242.30227	1700.15762	-1996.53488	56.87401	1701.50421	-2009.70398	258.26761	1665.65765	-2122.73636	55.47498	1677.95654	-2123.31467	215.44353	1436.61636	-1990.12146	92.21611	1432.99316	-1998.85956	231.36158	1482.62833	-2142.19162	76.94909	1482.45697	-2139.97925	156.14449	1314.95621	-2203.39798	160.74177	1373.85468	-1947.5856	159.83047	1276.11855	-1913.75458	349.97623	1435.15839	-2067.86133	395.32646	1206.31729	-2048.33466	410.78552	1116.67496	-2075.29251	425.41386	1008.03314	-2019.47525	363.27991	908.43513	-1920.66452	401.51897	879.37569	-1982.56927	412.61032	852.67769	-1915.81726	-34.37605	1427.12936	-2059.50607	-92.35894	1247.21817	-2087.04102	-108.98812	1128.31566	-2083.92868	-122.89021	995.84358	-2038.94745	-63.63694	904.96597	-1929.86252	-128.93797	883.34511	-1978.18832	-122.05599	856.12846	-1908.24707	264.0299	967.39639	-1937.68036	27.82591	971.27602	-1943.63876	208.84762	1027.62733	-2151.59348	64.59035	1031.46202	-2151.79153	260.61243	748.89595	-2154.97192	297.89524	511.17802	-2069.39301	273.87325	311.86462	-2069.7403	280.49246	127.96373	-2159.57718	227.59802	119.4983	-2210.47806	263.79461	75.17245	-1987.2789	4.12786	730.54344	-2155.19928	-0.68133	487.53544	-2081.99631	56.91083	303.08781	-2072.93091	27.15748	107.02781	-2159.92706	89.53935	113.04774	-2214.39819	43.05782	77.48454	-1991.68823
35	1.153	242.4576	1700.06607	-1996.54434	56.99025	1701.50925	-2009.6315	258.361	1665.4541	-2122.47879	55.52365	1677.94098	-2123.27499	215.97933	1436.77704	-1990.6691	92.36514	1432.95013	-1998.7851	231.38308	1482.6355	-2142.28882	76.95139	1482.45956	-2139.94293	156.1448	1314.94949	-2203.45001	160.87475	1373.82553	-1947.65167	159.94459	1276.0717	-1913.73367	349.86084	1435.0444	-2066.85364	395.49175	1206.29021	-2048.51944	410.99457	1116.68945	-2075.37796	425.57323	1007.87849	-2019.51782	363.54004	908.34587	-1920.91492	401.84853	879.3502	-1982.7681	412.88078	852.62032	-1916.06079	-34.33949	1427.13135	-2059.40582	-92.41014	1247.2142	-2087.01355	-109.02547	1128.36723	-2083.9534	-122.97794	995.86388	-2039.02496	-63.63376	904.91425	-1929.96582	-129.02885	883.35976	-1978.33023	-122.11961	856.0585	-1908.41339	264.12004	967.42905	-1937.52502	27.87373	971.31058	-1943.48129	208.86564	1027.60735	-2151.50818	64.60049	1031.46194	-2151.68961	260.67007	748.96378	-2154.90219	297.92295	511.17413	-2069.33609	273.85584	311.85326	-2069.6936	280.69262	128.40443	-2160.09476	227.58669	119.543	-2210.48813	263.80903	75.17872	-1987.28409	4.21684	730.50728	-2155.00168	-0.60763	487.51747	-2081.87057	56.94984	302.99709	-2072.84729	27.46632	106.83681	-2159.59641	89.55892	113.07702	-2214.37012	43.07557	77.48523	-1991.70135
36	1.187	242.61236	1700.04898	-1996.58752	57.09493	1701.44882	-2009.58939	258.42422	1665.41702	-2122.48489	55.60967	1677.9451	-2123.25684	215.74152	1436.77383	-1990.13382	92.51956	1433.00476	-1998.77823	231.49908	1482.61276	-2142.30194	77.02622	1482.40128	-2139.9617	156.19375	1314.92523	-2203.46909	160.97506	1373.79715	-1947.65686	160.05186	1276.05301	-1913.80341	349.65195	1435.53589	-2069.58115	396.30947	1205.52032	-2045.45898	411.16749	1116.73004	-2075.59586	425.84362	1007.90833	-2019.8027	363.99151	908.26065	-1921.28632	402.16213	879.34166	-1983.13034	413.30791	852.56615	-1916.51352	-34.23345	1427.08817	-2059.36798	-92.38219	1247.19467	-2086.97754	-109.12572	1128.40164	-2084.02069	-123.01627	995.84526	-2039.07028	-63.70285	904.79782	-1930.15137	-129.11552	883.34938	-1978.45535	-122.14619	855.97885	-1908.52798	264.21238	967.45415	-1937.46109	27.96375	971.30768	-1943.36929	208.8809	1027.5985	-2151.44928	64.60195	1031.44547	-2151.60446	260.6632	748.91487	-2154.81842	297.89646	511.14937	-2069.1893	273.85017	311.83617	-2069.59091	280.46097	127.94238	-2159.46716	227.58553	119.53899	-2210.44632	263.80001	75.20007	-1987.27768	4.17613	730.50018	-2154.83582	-0.61169	487.47879	-2081.68503	56.97626	302.95435	-2072.82303	27.18796	106.97821	-2159.84283	89.5596	113.07307	-2214.33899	43.05589	77.46805	-1991.68671
